<mxfile host="app.diagrams.net" modified="2024-07-19T15:53:59.561Z" agent="Mozilla/5.0 (Windows NT 10.0; Win64; x64) AppleWebKit/537.36 (KHTML, like Gecko) Chrome/126.0.0.0 Safari/537.36" etag="buVyx8SnLu63TUEumhDo" version="24.6.4" type="device">
  <diagram name="Seite-1" id="f8F1zJei1EXFtww37Cu9">
    <mxGraphModel dx="2338" dy="809" grid="1" gridSize="10" guides="1" tooltips="1" connect="1" arrows="1" fold="1" page="1" pageScale="1" pageWidth="827" pageHeight="1169" math="0" shadow="0">
      <root>
        <mxCell id="0" />
        <mxCell id="1" parent="0" />
        <mxCell id="B8eMcN1j9Ar7sqwNlv22-5" value="&lt;div&gt;&lt;span style=&quot;font-weight: 400;&quot;&gt;«Record»&lt;/span&gt;&lt;br&gt;&lt;/div&gt;SongRecord" style="swimlane;fontStyle=1;align=center;verticalAlign=top;childLayout=stackLayout;horizontal=1;startSize=40;horizontalStack=0;resizeParent=1;resizeParentMax=0;resizeLast=0;collapsible=1;marginBottom=0;whiteSpace=wrap;html=1;" vertex="1" parent="1">
          <mxGeometry x="650" y="74" width="160" height="48" as="geometry" />
        </mxCell>
        <mxCell id="B8eMcN1j9Ar7sqwNlv22-7" value="" style="line;strokeWidth=1;fillColor=none;align=left;verticalAlign=middle;spacingTop=-1;spacingLeft=3;spacingRight=3;rotatable=0;labelPosition=right;points=[];portConstraint=eastwest;strokeColor=inherit;" vertex="1" parent="B8eMcN1j9Ar7sqwNlv22-5">
          <mxGeometry y="40" width="160" height="8" as="geometry" />
        </mxCell>
        <mxCell id="B8eMcN1j9Ar7sqwNlv22-15" value="&lt;div&gt;&lt;span style=&quot;font-weight: 400;&quot;&gt;«interface»&lt;/span&gt;&lt;br&gt;&lt;/div&gt;GuiElement" style="swimlane;fontStyle=1;align=center;verticalAlign=top;childLayout=stackLayout;horizontal=1;startSize=40;horizontalStack=0;resizeParent=1;resizeParentMax=0;resizeLast=0;collapsible=1;marginBottom=0;whiteSpace=wrap;html=1;" vertex="1" parent="1">
          <mxGeometry x="290" y="540" width="180" height="74" as="geometry" />
        </mxCell>
        <mxCell id="B8eMcN1j9Ar7sqwNlv22-17" value="" style="line;strokeWidth=1;fillColor=none;align=left;verticalAlign=middle;spacingTop=-1;spacingLeft=3;spacingRight=3;rotatable=0;labelPosition=right;points=[];portConstraint=eastwest;strokeColor=inherit;" vertex="1" parent="B8eMcN1j9Ar7sqwNlv22-15">
          <mxGeometry y="40" width="180" height="8" as="geometry" />
        </mxCell>
        <mxCell id="B8eMcN1j9Ar7sqwNlv22-18" value="+ getGuiElement(): GuiElement" style="text;strokeColor=none;fillColor=none;align=left;verticalAlign=top;spacingLeft=4;spacingRight=4;overflow=hidden;rotatable=0;points=[[0,0.5],[1,0.5]];portConstraint=eastwest;whiteSpace=wrap;html=1;" vertex="1" parent="B8eMcN1j9Ar7sqwNlv22-15">
          <mxGeometry y="48" width="180" height="26" as="geometry" />
        </mxCell>
        <mxCell id="B8eMcN1j9Ar7sqwNlv22-19" value="«interface»&lt;br&gt;&lt;b&gt;JFrame&lt;/b&gt;" style="html=1;whiteSpace=wrap;" vertex="1" parent="1">
          <mxGeometry x="490" y="460" width="110" height="50" as="geometry" />
        </mxCell>
        <mxCell id="B8eMcN1j9Ar7sqwNlv22-20" value="" style="endArrow=block;dashed=1;endFill=0;endSize=12;html=1;rounded=0;" edge="1" parent="1" source="B8eMcN1j9Ar7sqwNlv22-15" target="B8eMcN1j9Ar7sqwNlv22-19">
          <mxGeometry width="160" relative="1" as="geometry">
            <mxPoint x="290" y="460" as="sourcePoint" />
            <mxPoint x="450" y="460" as="targetPoint" />
          </mxGeometry>
        </mxCell>
        <mxCell id="B8eMcN1j9Ar7sqwNlv22-21" value="Button" style="swimlane;fontStyle=1;align=center;verticalAlign=top;childLayout=stackLayout;horizontal=1;startSize=26;horizontalStack=0;resizeParent=1;resizeParentMax=0;resizeLast=0;collapsible=1;marginBottom=0;whiteSpace=wrap;html=1;" vertex="1" parent="1">
          <mxGeometry x="30" y="680" width="210" height="200" as="geometry" />
        </mxCell>
        <mxCell id="B8eMcN1j9Ar7sqwNlv22-22" value="- button: JButton" style="text;strokeColor=none;fillColor=none;align=left;verticalAlign=top;spacingLeft=4;spacingRight=4;overflow=hidden;rotatable=0;points=[[0,0.5],[1,0.5]];portConstraint=eastwest;whiteSpace=wrap;html=1;" vertex="1" parent="B8eMcN1j9Ar7sqwNlv22-21">
          <mxGeometry y="26" width="210" height="26" as="geometry" />
        </mxCell>
        <mxCell id="B8eMcN1j9Ar7sqwNlv22-23" value="" style="line;strokeWidth=1;fillColor=none;align=left;verticalAlign=middle;spacingTop=-1;spacingLeft=3;spacingRight=3;rotatable=0;labelPosition=right;points=[];portConstraint=eastwest;strokeColor=inherit;" vertex="1" parent="B8eMcN1j9Ar7sqwNlv22-21">
          <mxGeometry y="52" width="210" height="8" as="geometry" />
        </mxCell>
        <mxCell id="B8eMcN1j9Ar7sqwNlv22-24" value="+ getGuiElement(): GuiElement&lt;div&gt;&lt;br&gt;&lt;/div&gt;&lt;div&gt;+ Button(x: int, y: int, width: int,&amp;nbsp; &amp;nbsp; &amp;nbsp; height: int)&lt;/div&gt;&lt;div&gt;+ Button(x: int, y: int, width: int, height: int, name: String)&lt;br&gt;&lt;/div&gt;&lt;div&gt;&lt;br&gt;&lt;/div&gt;&lt;div&gt;- setButtonFuntionality():&lt;/div&gt;" style="text;strokeColor=none;fillColor=none;align=left;verticalAlign=top;spacingLeft=4;spacingRight=4;overflow=hidden;rotatable=0;points=[[0,0.5],[1,0.5]];portConstraint=eastwest;whiteSpace=wrap;html=1;" vertex="1" parent="B8eMcN1j9Ar7sqwNlv22-21">
          <mxGeometry y="60" width="210" height="140" as="geometry" />
        </mxCell>
        <mxCell id="B8eMcN1j9Ar7sqwNlv22-30" value="" style="endArrow=block;dashed=1;endFill=0;endSize=12;html=1;rounded=0;" edge="1" parent="1" source="B8eMcN1j9Ar7sqwNlv22-21" target="B8eMcN1j9Ar7sqwNlv22-15">
          <mxGeometry width="160" relative="1" as="geometry">
            <mxPoint x="290" y="460" as="sourcePoint" />
            <mxPoint x="450" y="460" as="targetPoint" />
          </mxGeometry>
        </mxCell>
        <mxCell id="B8eMcN1j9Ar7sqwNlv22-31" value="Clientmaske" style="swimlane;fontStyle=1;align=center;verticalAlign=top;childLayout=stackLayout;horizontal=1;startSize=26;horizontalStack=0;resizeParent=1;resizeParentMax=0;resizeLast=0;collapsible=1;marginBottom=0;whiteSpace=wrap;html=1;" vertex="1" parent="1">
          <mxGeometry x="30" y="527" width="160" height="100" as="geometry" />
        </mxCell>
        <mxCell id="B8eMcN1j9Ar7sqwNlv22-32" value="+ field: type" style="text;strokeColor=none;fillColor=none;align=left;verticalAlign=top;spacingLeft=4;spacingRight=4;overflow=hidden;rotatable=0;points=[[0,0.5],[1,0.5]];portConstraint=eastwest;whiteSpace=wrap;html=1;" vertex="1" parent="B8eMcN1j9Ar7sqwNlv22-31">
          <mxGeometry y="26" width="160" height="26" as="geometry" />
        </mxCell>
        <mxCell id="B8eMcN1j9Ar7sqwNlv22-33" value="" style="line;strokeWidth=1;fillColor=none;align=left;verticalAlign=middle;spacingTop=-1;spacingLeft=3;spacingRight=3;rotatable=0;labelPosition=right;points=[];portConstraint=eastwest;strokeColor=inherit;" vertex="1" parent="B8eMcN1j9Ar7sqwNlv22-31">
          <mxGeometry y="52" width="160" height="8" as="geometry" />
        </mxCell>
        <mxCell id="B8eMcN1j9Ar7sqwNlv22-34" value="+ Clientmaske():&lt;div&gt;- buttonFunction():&lt;/div&gt;" style="text;strokeColor=none;fillColor=none;align=left;verticalAlign=top;spacingLeft=4;spacingRight=4;overflow=hidden;rotatable=0;points=[[0,0.5],[1,0.5]];portConstraint=eastwest;whiteSpace=wrap;html=1;" vertex="1" parent="B8eMcN1j9Ar7sqwNlv22-31">
          <mxGeometry y="60" width="160" height="40" as="geometry" />
        </mxCell>
        <mxCell id="B8eMcN1j9Ar7sqwNlv22-35" value="1" style="endArrow=open;html=1;endSize=12;startArrow=diamondThin;startSize=14;startFill=0;edgeStyle=orthogonalEdgeStyle;align=left;verticalAlign=bottom;rounded=0;" edge="1" parent="1" source="B8eMcN1j9Ar7sqwNlv22-31" target="B8eMcN1j9Ar7sqwNlv22-15">
          <mxGeometry x="-1" y="3" relative="1" as="geometry">
            <mxPoint x="290" y="460" as="sourcePoint" />
            <mxPoint x="450" y="460" as="targetPoint" />
          </mxGeometry>
        </mxCell>
        <mxCell id="B8eMcN1j9Ar7sqwNlv22-36" value="GuiFactory" style="swimlane;fontStyle=1;align=center;verticalAlign=top;childLayout=stackLayout;horizontal=1;startSize=26;horizontalStack=0;resizeParent=1;resizeParentMax=0;resizeLast=0;collapsible=1;marginBottom=0;whiteSpace=wrap;html=1;" vertex="1" parent="1">
          <mxGeometry x="700" y="412" width="200" height="330" as="geometry" />
        </mxCell>
        <mxCell id="B8eMcN1j9Ar7sqwNlv22-37" value="&lt;div&gt;&lt;u&gt;- guiFactory: GuiFactory&lt;/u&gt;&lt;/div&gt;- startButton: GuiElement&lt;div&gt;- stopButton: GuiElement&lt;/div&gt;&lt;div&gt;- skipButton: GuiElement&lt;/div&gt;&lt;div&gt;- repeatButton: GuiElement&lt;/div&gt;&lt;div&gt;- lastSongButton: GuiElement&lt;/div&gt;" style="text;strokeColor=none;fillColor=none;align=left;verticalAlign=top;spacingLeft=4;spacingRight=4;overflow=hidden;rotatable=0;points=[[0,0.5],[1,0.5]];portConstraint=eastwest;whiteSpace=wrap;html=1;" vertex="1" parent="B8eMcN1j9Ar7sqwNlv22-36">
          <mxGeometry y="26" width="200" height="134" as="geometry" />
        </mxCell>
        <mxCell id="B8eMcN1j9Ar7sqwNlv22-38" value="" style="line;strokeWidth=1;fillColor=none;align=left;verticalAlign=middle;spacingTop=-1;spacingLeft=3;spacingRight=3;rotatable=0;labelPosition=right;points=[];portConstraint=eastwest;strokeColor=inherit;" vertex="1" parent="B8eMcN1j9Ar7sqwNlv22-36">
          <mxGeometry y="160" width="200" height="8" as="geometry" />
        </mxCell>
        <mxCell id="B8eMcN1j9Ar7sqwNlv22-39" value="+ GuiFactory():&lt;div&gt;&lt;u&gt;&lt;br&gt;&lt;/u&gt;&lt;/div&gt;&lt;div&gt;&lt;u&gt;+ getGuiFactory(): GuiFactory&lt;/u&gt;&lt;/div&gt;&lt;div&gt;&lt;br&gt;&lt;/div&gt;&lt;div&gt;+ getStartButton(): GuiElement&lt;div&gt;+ getStopButton(): GuiElement&lt;/div&gt;&lt;div&gt;+ getSkipButton(): GuiElement&lt;/div&gt;&lt;div&gt;+ getRepeatButton(): GuiElement&lt;/div&gt;&lt;div&gt;+ getLastSongButton(): GuiElement&lt;/div&gt;&lt;/div&gt;" style="text;strokeColor=none;fillColor=none;align=left;verticalAlign=top;spacingLeft=4;spacingRight=4;overflow=hidden;rotatable=0;points=[[0,0.5],[1,0.5]];portConstraint=eastwest;whiteSpace=wrap;html=1;" vertex="1" parent="B8eMcN1j9Ar7sqwNlv22-36">
          <mxGeometry y="168" width="200" height="162" as="geometry" />
        </mxCell>
        <mxCell id="B8eMcN1j9Ar7sqwNlv22-40" value="1" style="endArrow=open;html=1;endSize=12;startArrow=diamondThin;startSize=14;startFill=0;align=left;verticalAlign=bottom;rounded=0;" edge="1" parent="1" source="B8eMcN1j9Ar7sqwNlv22-36" target="B8eMcN1j9Ar7sqwNlv22-15">
          <mxGeometry x="-0.8095" y="-7" relative="1" as="geometry">
            <mxPoint x="190" y="377" as="sourcePoint" />
            <mxPoint x="290" y="377" as="targetPoint" />
            <mxPoint as="offset" />
          </mxGeometry>
        </mxCell>
        <mxCell id="B8eMcN1j9Ar7sqwNlv22-42" value="ExceptionHandler" style="swimlane;fontStyle=1;align=center;verticalAlign=top;childLayout=stackLayout;horizontal=1;startSize=26;horizontalStack=0;resizeParent=1;resizeParentMax=0;resizeLast=0;collapsible=1;marginBottom=0;whiteSpace=wrap;html=1;" vertex="1" parent="1">
          <mxGeometry x="-480" y="163" width="160" height="86" as="geometry" />
        </mxCell>
        <mxCell id="B8eMcN1j9Ar7sqwNlv22-43" value="+ field: type" style="text;strokeColor=none;fillColor=none;align=left;verticalAlign=top;spacingLeft=4;spacingRight=4;overflow=hidden;rotatable=0;points=[[0,0.5],[1,0.5]];portConstraint=eastwest;whiteSpace=wrap;html=1;" vertex="1" parent="B8eMcN1j9Ar7sqwNlv22-42">
          <mxGeometry y="26" width="160" height="26" as="geometry" />
        </mxCell>
        <mxCell id="B8eMcN1j9Ar7sqwNlv22-44" value="" style="line;strokeWidth=1;fillColor=none;align=left;verticalAlign=middle;spacingTop=-1;spacingLeft=3;spacingRight=3;rotatable=0;labelPosition=right;points=[];portConstraint=eastwest;strokeColor=inherit;" vertex="1" parent="B8eMcN1j9Ar7sqwNlv22-42">
          <mxGeometry y="52" width="160" height="8" as="geometry" />
        </mxCell>
        <mxCell id="B8eMcN1j9Ar7sqwNlv22-45" value="+ method(type): type" style="text;strokeColor=none;fillColor=none;align=left;verticalAlign=top;spacingLeft=4;spacingRight=4;overflow=hidden;rotatable=0;points=[[0,0.5],[1,0.5]];portConstraint=eastwest;whiteSpace=wrap;html=1;" vertex="1" parent="B8eMcN1j9Ar7sqwNlv22-42">
          <mxGeometry y="60" width="160" height="26" as="geometry" />
        </mxCell>
        <mxCell id="B8eMcN1j9Ar7sqwNlv22-46" value="App" style="swimlane;fontStyle=1;align=center;verticalAlign=top;childLayout=stackLayout;horizontal=1;startSize=26;horizontalStack=0;resizeParent=1;resizeParentMax=0;resizeLast=0;collapsible=1;marginBottom=0;whiteSpace=wrap;html=1;" vertex="1" parent="1">
          <mxGeometry x="-630" y="547" width="160" height="60" as="geometry" />
        </mxCell>
        <mxCell id="B8eMcN1j9Ar7sqwNlv22-48" value="" style="line;strokeWidth=1;fillColor=none;align=left;verticalAlign=middle;spacingTop=-1;spacingLeft=3;spacingRight=3;rotatable=0;labelPosition=right;points=[];portConstraint=eastwest;strokeColor=inherit;" vertex="1" parent="B8eMcN1j9Ar7sqwNlv22-46">
          <mxGeometry y="26" width="160" height="8" as="geometry" />
        </mxCell>
        <mxCell id="B8eMcN1j9Ar7sqwNlv22-49" value="&lt;u&gt;+ main(): void&lt;/u&gt;" style="text;strokeColor=none;fillColor=none;align=left;verticalAlign=top;spacingLeft=4;spacingRight=4;overflow=hidden;rotatable=0;points=[[0,0.5],[1,0.5]];portConstraint=eastwest;whiteSpace=wrap;html=1;" vertex="1" parent="B8eMcN1j9Ar7sqwNlv22-46">
          <mxGeometry y="34" width="160" height="26" as="geometry" />
        </mxCell>
        <mxCell id="B8eMcN1j9Ar7sqwNlv22-50" value="" style="endArrow=diamondThin;endFill=0;endSize=24;html=1;rounded=0;" edge="1" parent="1" source="B8eMcN1j9Ar7sqwNlv22-31" target="B8eMcN1j9Ar7sqwNlv22-46">
          <mxGeometry width="160" relative="1" as="geometry">
            <mxPoint x="290" y="230" as="sourcePoint" />
            <mxPoint x="450" y="230" as="targetPoint" />
          </mxGeometry>
        </mxCell>
        <mxCell id="B8eMcN1j9Ar7sqwNlv22-52" value="" style="endArrow=diamondThin;endFill=0;endSize=24;html=1;rounded=0;" edge="1" parent="1" source="B8eMcN1j9Ar7sqwNlv22-11" target="B8eMcN1j9Ar7sqwNlv22-53">
          <mxGeometry width="160" relative="1" as="geometry">
            <mxPoint x="310" y="149" as="sourcePoint" />
            <mxPoint x="292" y="280" as="targetPoint" />
          </mxGeometry>
        </mxCell>
        <mxCell id="B8eMcN1j9Ar7sqwNlv22-53" value="PlayOptions" style="swimlane;fontStyle=1;align=center;verticalAlign=top;childLayout=stackLayout;horizontal=1;startSize=26;horizontalStack=0;resizeParent=1;resizeParentMax=0;resizeLast=0;collapsible=1;marginBottom=0;whiteSpace=wrap;html=1;" vertex="1" parent="1">
          <mxGeometry x="15" y="20" width="190" height="320" as="geometry" />
        </mxCell>
        <mxCell id="B8eMcN1j9Ar7sqwNlv22-54" value="- playlists: List&amp;lt;Playlist&amp;gt;&lt;div&gt;&lt;u&gt;- playOptions: PlayOptions&lt;/u&gt;&lt;/div&gt;" style="text;strokeColor=none;fillColor=none;align=left;verticalAlign=top;spacingLeft=4;spacingRight=4;overflow=hidden;rotatable=0;points=[[0,0.5],[1,0.5]];portConstraint=eastwest;whiteSpace=wrap;html=1;" vertex="1" parent="B8eMcN1j9Ar7sqwNlv22-53">
          <mxGeometry y="26" width="190" height="84" as="geometry" />
        </mxCell>
        <mxCell id="B8eMcN1j9Ar7sqwNlv22-55" value="" style="line;strokeWidth=1;fillColor=none;align=left;verticalAlign=middle;spacingTop=-1;spacingLeft=3;spacingRight=3;rotatable=0;labelPosition=right;points=[];portConstraint=eastwest;strokeColor=inherit;" vertex="1" parent="B8eMcN1j9Ar7sqwNlv22-53">
          <mxGeometry y="110" width="190" height="8" as="geometry" />
        </mxCell>
        <mxCell id="B8eMcN1j9Ar7sqwNlv22-56" value="&lt;div&gt;+ PlayOptions():&lt;/div&gt;&lt;div&gt;&lt;br&gt;&lt;/div&gt;&lt;div&gt;&lt;u&gt;+ getPlayOptions(): PlayOptions&lt;/u&gt;&lt;/div&gt;&lt;div&gt;&lt;br&gt;&lt;/div&gt;+ startSong():&amp;nbsp;&lt;div&gt;+ stopSong():&amp;nbsp;&lt;/div&gt;&lt;div&gt;+ repeatSong():&lt;/div&gt;&lt;div&gt;+ lastSong():&lt;/div&gt;&lt;div&gt;+ skipSong():&lt;/div&gt;&lt;div&gt;+ clearCache():&lt;/div&gt;&lt;div&gt;&lt;br&gt;&lt;/div&gt;&lt;div&gt;- setPlaylists():&lt;/div&gt;" style="text;strokeColor=none;fillColor=none;align=left;verticalAlign=top;spacingLeft=4;spacingRight=4;overflow=hidden;rotatable=0;points=[[0,0.5],[1,0.5]];portConstraint=eastwest;whiteSpace=wrap;html=1;" vertex="1" parent="B8eMcN1j9Ar7sqwNlv22-53">
          <mxGeometry y="118" width="190" height="202" as="geometry" />
        </mxCell>
        <mxCell id="B8eMcN1j9Ar7sqwNlv22-11" value="Playlist" style="swimlane;fontStyle=1;align=center;verticalAlign=top;childLayout=stackLayout;horizontal=1;startSize=26;horizontalStack=0;resizeParent=1;resizeParentMax=0;resizeLast=0;collapsible=1;marginBottom=0;whiteSpace=wrap;html=1;" vertex="1" parent="1">
          <mxGeometry x="330" y="40" width="230" height="280" as="geometry" />
        </mxCell>
        <mxCell id="B8eMcN1j9Ar7sqwNlv22-12" value="- queue: List&amp;lt;SongRecord&amp;gt;&lt;div&gt;- pointer: int&lt;/div&gt;&lt;div&gt;- name: String&lt;/div&gt;&lt;div&gt;- random: Random&lt;/div&gt;" style="text;strokeColor=none;fillColor=none;align=left;verticalAlign=top;spacingLeft=4;spacingRight=4;overflow=hidden;rotatable=0;points=[[0,0.5],[1,0.5]];portConstraint=eastwest;whiteSpace=wrap;html=1;" vertex="1" parent="B8eMcN1j9Ar7sqwNlv22-11">
          <mxGeometry y="26" width="230" height="64" as="geometry" />
        </mxCell>
        <mxCell id="B8eMcN1j9Ar7sqwNlv22-13" value="" style="line;strokeWidth=1;fillColor=none;align=left;verticalAlign=middle;spacingTop=-1;spacingLeft=3;spacingRight=3;rotatable=0;labelPosition=right;points=[];portConstraint=eastwest;strokeColor=inherit;" vertex="1" parent="B8eMcN1j9Ar7sqwNlv22-11">
          <mxGeometry y="90" width="230" height="8" as="geometry" />
        </mxCell>
        <mxCell id="B8eMcN1j9Ar7sqwNlv22-14" value="&lt;div&gt;+ Playlist(name: String):&lt;/div&gt;&lt;div&gt;&lt;br&gt;&lt;/div&gt;+ getRandomSong(): SongRecord&lt;div&gt;+ getNextSongInLIne(): SongRecord&lt;/div&gt;&lt;div&gt;+ getCurrentSongRepeat(): SongRecord&lt;/div&gt;&lt;div&gt;+ getLastSong(): SongRecord&lt;/div&gt;&lt;div&gt;+ getName(): String&lt;/div&gt;&lt;div&gt;&lt;br&gt;&lt;/div&gt;&lt;div&gt;- fillListOfSongs(name: String):&lt;/div&gt;&lt;div&gt;&lt;span style=&quot;background-color: initial;&quot;&gt;- getFiles(files: File[]):&lt;/span&gt;&lt;/div&gt;" style="text;strokeColor=none;fillColor=none;align=left;verticalAlign=top;spacingLeft=4;spacingRight=4;overflow=hidden;rotatable=0;points=[[0,0.5],[1,0.5]];portConstraint=eastwest;whiteSpace=wrap;html=1;" vertex="1" parent="B8eMcN1j9Ar7sqwNlv22-11">
          <mxGeometry y="98" width="230" height="182" as="geometry" />
        </mxCell>
        <mxCell id="B8eMcN1j9Ar7sqwNlv22-51" value="" style="endArrow=diamondThin;endFill=0;endSize=24;html=1;rounded=0;" edge="1" parent="1" source="B8eMcN1j9Ar7sqwNlv22-5" target="B8eMcN1j9Ar7sqwNlv22-12">
          <mxGeometry width="160" relative="1" as="geometry">
            <mxPoint x="190" y="327" as="sourcePoint" />
            <mxPoint x="630" y="40" as="targetPoint" />
          </mxGeometry>
        </mxCell>
        <mxCell id="B8eMcN1j9Ar7sqwNlv22-62" value="" style="endArrow=diamondThin;endFill=0;endSize=24;html=1;rounded=0;" edge="1" parent="1" source="B8eMcN1j9Ar7sqwNlv22-53" target="B8eMcN1j9Ar7sqwNlv22-31">
          <mxGeometry width="160" relative="1" as="geometry">
            <mxPoint x="190" y="327" as="sourcePoint" />
            <mxPoint x="282" y="270" as="targetPoint" />
          </mxGeometry>
        </mxCell>
        <mxCell id="B8eMcN1j9Ar7sqwNlv22-63" value="Javax" style="html=1;whiteSpace=wrap;" vertex="1" parent="1">
          <mxGeometry x="-230" y="43" width="110" height="50" as="geometry" />
        </mxCell>
        <mxCell id="B8eMcN1j9Ar7sqwNlv22-64" value="" style="endArrow=diamondThin;endFill=0;endSize=24;html=1;rounded=0;" edge="1" parent="1" source="B8eMcN1j9Ar7sqwNlv22-63" target="B8eMcN1j9Ar7sqwNlv22-53">
          <mxGeometry width="160" relative="1" as="geometry">
            <mxPoint x="290" y="360" as="sourcePoint" />
            <mxPoint x="450" y="360" as="targetPoint" />
          </mxGeometry>
        </mxCell>
      </root>
    </mxGraphModel>
  </diagram>
</mxfile>
